<svg width="103" height="58" viewBox="0 0 103 58" fill="none" xmlns="http://www.w3.org/2000/svg">
<path d="M70.2356 32.2148V33.0994L70.2129 33.0544L69.8902 33.2156L65.8871 35.2122V32.2023H64.0992V41.2543H65.8871V37.1937L68.734 35.7719L68.8059 35.7369L70.2356 35.0247V41.2543H72.0197V32.2148H70.2356Z" fill="white"/>
<path d="M76.5457 31.0847L76.553 32.3616V32.3921L76.5574 33.1317V33.1538L76.5603 33.3339H76.5794L78.8087 33.32V33.1829L78.794 31.0709L76.5457 31.0847Z" fill="white"/>
<path d="M80.419 32.2023V36.5501L80.1875 36.6677L76.0643 38.729V32.2023H74.2827V41.2543H76.0643V40.7127L79.0337 39.228L79.1054 39.193L80.419 38.5351V41.2543H82.2031V32.2023H80.419Z" fill="white"/>
<path d="M63.4005 24.8573C63.4005 23.0473 61.9402 21.5866 60.15 21.5866C58.3364 21.5866 56.8774 23.0473 56.8774 24.8573C56.8774 26.6494 58.3364 28.1101 60.15 28.1101C61.9402 28.1101 63.4005 26.6494 63.4005 24.8573ZM65.2307 24.8573C65.2307 27.6614 62.9519 29.9394 60.15 29.9394C57.326 29.9394 55.0472 27.6614 55.0472 24.8573C55.0472 22.0339 57.326 19.7559 60.15 19.7559C62.9519 19.7559 65.2307 22.0339 65.2307 24.8573Z" fill="white"/>
<path d="M81.7056 24.8579C81.7056 23.0468 80.4086 21.5861 78.8159 21.5861C77.2062 21.5861 75.9093 23.0468 75.9093 24.8579C75.9093 26.6485 77.2062 28.1092 78.8159 28.1092C80.4086 28.1092 81.7056 26.6485 81.7056 24.8579ZM83.3346 24.8579C83.3346 27.6605 81.308 29.9394 78.8159 29.9394C76.3056 29.9394 74.2827 27.6605 74.2827 24.8579C74.2827 22.0335 76.3056 19.7559 78.8159 19.7559C81.308 19.7559 83.3346 22.0335 83.3346 24.8579Z" fill="white"/>
<path d="M101.284 24.9472C101.284 23.2514 99.9168 21.8831 98.24 21.8831C96.5429 21.8831 95.1759 23.2514 95.1759 24.9472C95.1759 26.6265 96.5429 27.9949 98.24 27.9949C99.9168 27.9949 101.284 26.6265 101.284 24.9472ZM103 24.9472C103 27.5747 100.865 29.7097 98.24 29.7097C95.5948 29.7097 93.4597 27.5747 93.4597 24.9472C93.4597 22.3032 95.5948 20.1682 98.24 20.1682C100.865 20.1682 103 22.3032 103 24.9472Z" fill="white"/>
<path d="M62.9677 38.9955C62.1145 40.3411 60.5611 41.2543 58.7652 41.2543C56.0838 41.2543 53.9157 39.2371 53.9157 36.7368C53.9157 34.2376 56.0838 32.2023 58.7652 32.2023C60.5417 32.2023 62.0977 33.0998 62.9314 34.4092L61.448 35.3755C60.9294 34.4961 59.9309 33.8922 58.7652 33.8922C57.0822 33.8922 55.7116 35.1677 55.7116 36.7368C55.7116 38.3058 57.0822 39.5645 58.7652 39.5645C59.8946 39.5645 60.8931 38.9955 61.4104 38.1331L62.9677 38.9955Z" fill="white"/>
<path d="M92.3866 38.9955C91.5352 40.3407 89.9787 41.2543 88.1828 41.2543C85.5006 41.2543 83.3346 39.2378 83.3346 36.7368C83.3346 34.2369 85.5006 32.2023 88.1828 32.2023C89.9619 32.2023 91.5158 33.0991 92.3504 34.4093L90.8702 35.3747C90.35 34.4961 89.3499 33.8922 88.1828 33.8922C86.5007 33.8922 85.1292 35.1686 85.1292 36.7368C85.1292 38.3061 86.5007 39.5644 88.1828 39.5644C89.3123 39.5644 90.3138 38.9955 90.8301 38.1337L92.3866 38.9955Z" fill="white"/>
<path d="M52.2169 19.7559V25.2651H46.5626V19.7559H44.8638V29.9394H46.5626V27.2587H52.2169V29.9394H53.9157V19.7559H52.2169Z" fill="white"/>
<path d="M86.3731 26.4905V22.7818H90.4755V24.5749L86.3731 26.4905ZM92.3866 21.0261V20.8874H84.4661V29.9394H86.3731V28.4723L89.7303 26.9054L89.8138 26.8666L91.8246 25.9295L91.8839 25.902L92.3731 25.672L92.3704 25.6658H92.3866V21.0261Z" fill="white"/>
<path d="M70.0007 27.9477H67.994V25.315C68.3056 25.1576 68.6472 25.069 69.0094 25.069C70.1513 25.069 71.1254 25.9672 71.4933 27.2238C71.5589 27.4543 71.606 27.6961 71.629 27.9477H70.0007ZM69.9719 21.3976V23.3936C69.6626 23.3022 69.3418 23.2516 69.0094 23.2516C68.6587 23.2516 68.3171 23.305 67.994 23.4048V21.3976H69.9719ZM73.1217 27.9224V27.9139C73.1217 27.9111 73.1217 27.9083 73.1217 27.9041C73.1217 27.8971 73.1194 27.8886 73.1194 27.8802C73.0688 27.0312 72.8365 26.4184 72.8365 26.4184V26.4254C72.5743 25.6256 72.15 24.9299 71.6141 24.3929V19.7559H66.3622V29.9394H73.1424C73.1424 29.9394 73.1723 28.7685 73.1217 27.9224Z" fill="white"/>
<path d="M99.1118 35.223L101.227 32.2023H99.002L95.4139 37.3106V32.2023H93.5181V41.2543H95.4139V40.5213L97.6003 37.3906L97.9095 36.9578L100.36 41.2543H102.57L99.1118 35.223Z" fill="white"/>
<path d="M52.7843 38.9961C51.9341 40.3416 50.3778 41.2543 48.5841 41.2543C45.8999 41.2543 43.7323 39.2379 43.7323 36.7368C43.7323 34.2368 45.8999 32.2023 48.5841 32.2023C50.3623 32.2023 51.9172 33.0993 52.7479 34.4097L51.2695 35.3744C50.7503 34.4955 49.7509 33.8923 48.5841 33.8923C46.8993 33.8923 45.5274 35.1677 45.5274 36.7368C45.5274 38.3059 46.8993 39.5643 48.5841 39.5643C49.7133 39.5643 50.7101 38.9961 51.2293 38.1342L52.7843 38.9961Z" fill="white"/>
<path d="M33.9449 44.7231L34.2226 45.2598C34.4109 44.9794 34.6439 44.8052 34.8769 44.8052C34.9423 44.8052 35.0109 44.8192 35.0764 44.8352L34.612 44.1283C34.3662 44.2204 34.1332 44.4307 33.9449 44.7231Z" fill="white"/>
<path d="M21.1818 38.4708C20.9591 38.7493 20.7016 38.8855 20.4388 38.8855C20.1048 38.8855 19.7881 38.6426 19.4367 38.4866L18.1039 39.3654L18.1944 39.5214C18.398 39.2449 18.652 39.0731 18.906 39.0731C19.4367 39.0731 19.8769 39.6023 20.4388 39.6023C20.7955 39.6023 21.1731 39.3812 21.4984 38.9862L21.1818 38.4708Z" fill="white"/>
<path d="M32.6163 38.4708C32.2717 38.4708 31.9399 38.7059 31.6819 39.0882L31.9608 39.6023C32.1499 39.3328 32.3823 39.1666 32.6163 39.1666C32.6339 39.1666 32.6531 39.1704 32.6707 39.1761L32.8134 38.4957C32.7525 38.4804 32.682 38.4708 32.6163 38.4708Z" fill="white"/>
<path d="M26.8139 27.3988C26.7112 27.5222 26.6019 27.5858 26.4926 27.5858C26.3112 27.5858 26.1375 27.4084 25.9495 27.26L25.295 27.1559C25.1475 27.2561 25.0076 27.4373 24.8929 27.6956L25.0798 28.2084C25.2109 27.9366 25.3682 27.7727 25.5278 27.7727C25.8599 27.7727 26.1397 28.2874 26.4926 28.2874C26.7133 28.2874 26.9537 28.0696 27.1559 27.6841L27.0608 27.4373L26.8139 27.3988Z" fill="white"/>
<path d="M31.6819 46.9696C31.8544 46.6115 32.0836 46.3913 32.3183 46.3913C32.6906 46.3913 32.9722 46.8729 33.2801 46.8729C33.4449 46.8729 33.6076 46.7494 33.7473 46.497L33.9449 46.9589C33.7407 47.3223 33.5038 47.5228 33.2801 47.5228C32.9275 47.5228 32.6513 47.0412 32.3183 47.0412C32.1589 47.0412 32.0006 47.1988 31.8718 47.4494L31.6819 46.9696Z" fill="white"/>
<path d="M24.8929 31.1287C25.0655 30.7706 25.295 30.5504 25.5278 30.5504C25.8993 30.5504 26.1823 31.032 26.4926 31.032C26.6543 31.032 26.8193 30.9085 26.957 30.656L27.1559 31.118C26.9537 31.476 26.7133 31.6819 26.4926 31.6819C26.1397 31.6819 25.8599 31.2021 25.5278 31.2021C25.3682 31.2021 25.2109 31.3579 25.0798 31.6085L24.8929 31.1287Z" fill="white"/>
<path d="M31.6819 42.4436C31.8544 42.0856 32.0836 41.8654 32.3183 41.8654C32.6906 41.8654 32.9722 42.347 33.2801 42.347C33.4449 42.347 33.6076 42.2234 33.7473 41.971L33.9449 42.4329C33.7407 42.7963 33.5038 42.9969 33.2801 42.9969C32.9275 42.9969 32.6513 42.5153 32.3183 42.5153C32.1589 42.5153 32.0006 42.6728 31.8718 42.9234L31.6819 42.4436Z" fill="white"/>
<path d="M18.1039 42.4436C18.3645 42.0856 18.7038 41.8654 19.0562 41.8654C19.6151 41.8654 20.038 42.347 20.5002 42.347C20.7477 42.347 20.9903 42.2234 21.2001 41.971L21.4984 42.4329C21.1919 42.7963 20.8362 42.9969 20.5002 42.9969C19.9708 42.9969 19.5561 42.5153 19.0562 42.5153C18.8169 42.5153 18.5776 42.6728 18.3858 42.9234L18.1039 42.4436Z" fill="white"/>
<path d="M33.2801 54.7934C32.9722 54.7934 32.6906 54.3118 32.3183 54.3118C32.0836 54.3118 31.8576 54.532 31.6819 54.8883L31.8718 55.3699C32.0006 55.1174 32.1589 54.9617 32.3183 54.9617C32.6513 54.9617 32.9275 55.4433 33.2801 55.4433C33.5038 55.4433 33.7407 55.2374 33.9449 54.8793L33.7473 54.4174C33.6076 54.668 33.4449 54.7934 33.2801 54.7934Z" fill="white"/>
<path d="M15.8409 52.6253C16.0136 52.269 16.2431 52.0488 16.4758 52.0488C16.8473 52.0488 17.1303 52.5304 17.4374 52.5304C17.6024 52.5304 17.7674 52.4069 17.9051 52.1545L18.1039 52.6164C17.9018 52.9744 17.6614 53.1803 17.4374 53.1803C17.0877 53.1803 16.808 52.6987 16.4758 52.6987C16.3163 52.6987 16.1567 52.8545 16.0278 53.1069L15.8409 52.6253Z" fill="white"/>
<path d="M18.1039 54.8919C18.3642 54.5327 18.7079 54.3118 19.0548 54.3118C19.6162 54.3118 20.0401 54.7913 20.5017 54.7913C20.7439 54.7913 20.991 54.671 21.2005 54.4177L21.4984 54.8829C21.1924 55.2421 20.8356 55.4433 20.5017 55.4433C19.973 55.4433 19.554 54.9655 19.0548 54.9655C18.8208 54.9655 18.5818 55.1218 18.3887 55.375L18.1039 54.8919Z" fill="white"/>
<path d="M21.4984 52.6253C21.7574 52.269 22.1016 52.0488 22.4507 52.0488C23.008 52.0488 23.4325 52.5304 23.898 52.5304C24.1406 52.5304 24.3881 52.4069 24.5946 52.1545L24.8929 52.6164C24.5897 52.9744 24.2291 53.1803 23.898 53.1803C23.3686 53.1803 22.949 52.6987 22.4507 52.6987C22.2114 52.6987 21.9754 52.8545 21.7787 53.1069L21.4984 52.6253Z" fill="white"/>
<path d="M24.8929 54.8919C25.0664 54.5327 25.2955 54.3118 25.5301 54.3118C25.9011 54.3118 26.1837 54.7913 26.4903 54.7913C26.6551 54.7913 26.8176 54.671 26.9573 54.4177L27.1559 54.8829C26.9518 55.2421 26.714 55.4433 26.4903 55.4433C26.139 55.4433 25.8596 54.9655 25.5301 54.9655C25.3708 54.9655 25.2115 55.1218 25.0828 55.375L24.8929 54.8919Z" fill="white"/>
<path d="M28.2874 52.6253C28.4599 52.269 28.6891 52.0488 28.9216 52.0488C29.2928 52.0488 29.5777 52.5304 29.8856 52.5304C30.0482 52.5304 30.2131 52.4069 30.3528 52.1545L30.5504 52.6164C30.3462 52.9744 30.1094 53.1803 29.8856 53.1803C29.533 53.1803 29.2535 52.6987 28.9216 52.6987C28.7623 52.6987 28.6062 52.8545 28.4741 53.1069L28.2874 52.6253Z" fill="white"/>
<path d="M18.1039 46.9696C18.3645 46.6115 18.7087 46.3913 19.0562 46.3913C19.6135 46.3913 20.038 46.8729 20.5002 46.8729C20.7477 46.8729 20.9952 46.7494 21.2001 46.497L21.4984 46.9589C21.1968 47.3223 20.8346 47.5228 20.5002 47.5228C19.9708 47.5228 19.5561 47.0412 19.0562 47.0412C18.8169 47.0412 18.5776 47.1988 18.3842 47.4494L18.1039 46.9696Z" fill="white"/>
<path d="M24.8929 46.9696C25.0664 46.6115 25.2955 46.3913 25.5301 46.3913C25.9011 46.3913 26.1837 46.8729 26.4903 46.8729C26.6551 46.8729 26.8176 46.7494 26.9573 46.497L27.1559 46.9589C26.9518 47.3223 26.714 47.5228 26.4903 47.5228C26.139 47.5228 25.8596 47.0412 25.5301 47.0412C25.3708 47.0412 25.2115 47.1988 25.0828 47.4494L24.8929 46.9696Z" fill="white"/>
<path d="M21.4984 36.7826C21.6722 36.4234 21.9016 36.2079 22.1333 36.2079C22.5059 36.2079 22.7878 36.6857 23.0959 36.6857C23.2609 36.6857 23.4259 36.5671 23.5625 36.3139L23.7614 36.7773C23.5603 37.1365 23.32 37.3394 23.0959 37.3394C22.743 37.3394 22.4665 36.8563 22.1333 36.8563C21.9737 36.8563 21.8142 37.0125 21.6864 37.2658L21.4984 36.7826Z" fill="white"/>
<path d="M15.8409 44.7066C16.0147 44.3485 16.2409 44.1283 16.4758 44.1283C16.8484 44.1283 17.1303 44.6099 17.4385 44.6099C17.6035 44.6099 17.7652 44.4864 17.9051 44.2339L18.1039 44.6976C17.8996 45.0593 17.6625 45.2598 17.4385 45.2598C17.0855 45.2598 16.8091 44.78 16.4758 44.78C16.3163 44.78 16.1567 44.9357 16.0289 45.1864L15.8409 44.7066Z" fill="white"/>
<path d="M21.4984 44.7066C21.7586 44.3485 22.1024 44.1283 22.451 44.1283C23.0074 44.1283 23.4346 44.6099 23.8962 44.6099C24.1384 44.6099 24.3855 44.4864 24.595 44.2339L24.8929 44.6976C24.5868 45.0593 24.2317 45.2598 23.8962 45.2598C23.3675 45.2598 22.9485 44.78 22.451 44.78C22.212 44.78 21.9763 44.9357 21.7848 45.1864L21.4984 44.7066Z" fill="white"/>
<path d="M28.2874 44.7066C28.4599 44.3485 28.6891 44.1283 28.9216 44.1283C29.2928 44.1283 29.5777 44.6099 29.8856 44.6099C30.0482 44.6099 30.2131 44.4864 30.3528 44.2339L30.5504 44.6976C30.3462 45.0593 30.1094 45.2598 29.8856 45.2598C29.533 45.2598 29.2535 44.78 28.9216 44.78C28.7623 44.78 28.6062 44.9357 28.4741 45.1864L28.2874 44.7066Z" fill="white"/>
<path d="M24.8929 42.4436C25.0664 42.0856 25.2955 41.8654 25.5301 41.8654C25.9011 41.8654 26.1837 42.347 26.4903 42.347C26.6551 42.347 26.8176 42.2234 26.9573 41.971L27.1559 42.4329C26.9518 42.7963 26.714 42.9969 26.4903 42.9969C26.139 42.9969 25.8596 42.5153 25.5301 42.5153C25.3708 42.5153 25.2115 42.6728 25.0828 42.9234L24.8929 42.4436Z" fill="white"/>
<path d="M24.8929 39.0473C25.0664 38.6893 25.2955 38.4708 25.5301 38.4708C25.9011 38.4708 26.1837 38.9507 26.4903 38.9507C26.6551 38.9507 26.8176 38.8271 26.9573 38.5747L27.1559 39.0384C26.9518 39.3964 26.714 39.6023 26.4903 39.6023C26.139 39.6023 25.8596 39.1207 25.5301 39.1207C25.3708 39.1207 25.2115 39.2765 25.0828 39.5289L24.8929 39.0473Z" fill="white"/>
<path d="M29.8856 36.6857C29.5788 36.6857 29.2961 36.2079 28.9216 36.2079C28.6891 36.2079 28.461 36.4252 28.2874 36.788L28.4773 37.2658C28.6062 37.0125 28.7655 36.8617 28.9216 36.8617C29.2546 36.8617 29.5341 37.3394 29.8856 37.3394C30.1094 37.3394 30.3473 37.1365 30.5504 36.7791L30.3528 36.3139C30.2131 36.5671 30.0482 36.6857 29.8856 36.6857Z" fill="white"/>
<path d="M28.2874 33.3926C28.4609 33.0346 28.69 32.8134 28.9246 32.8134C29.2956 32.8134 29.5782 33.2955 29.8848 33.2955C30.0496 33.2955 30.2121 33.1713 30.3518 32.9195L30.5504 33.3836C30.3463 33.7434 30.1085 33.9449 29.8848 33.9449C29.5335 33.9449 29.2563 33.4663 28.9246 33.4663C28.7653 33.4663 28.606 33.6193 28.4772 33.8711L28.2874 33.3926Z" fill="white"/>
<path d="M18.1039 18.1039H27.1559L26.7703 16.9724H18.5314L18.1039 18.1039Z" fill="white"/>
<path d="M21.4984 14.7095L24.8929 14.6808L24.0565 9.23728L22.5495 9.05197L21.4984 14.7095Z" fill="white"/>
<path d="M37.1262 15.8409C36.8721 15.8409 36.618 15.8027 36.37 15.7237C35.3237 15.3854 34.7423 14.2633 35.082 13.2215C35.3584 12.3648 36.2783 11.8933 37.1386 12.1685C37.8428 12.3957 38.2333 13.1511 38.0052 13.8535C37.818 14.4349 37.1895 14.7534 36.6081 14.567C36.1233 14.4127 35.8531 13.8905 36.0118 13.4079C36.1419 13.003 36.5795 12.7783 36.9862 12.908C37.332 13.0215 37.5229 13.3881 37.4114 13.7325L37.0692 13.6227C37.1163 13.4671 37.0308 13.3005 36.8746 13.2524C36.7705 13.2178 36.6589 13.2277 36.5609 13.2783C36.4593 13.3289 36.3862 13.4141 36.3552 13.5178C36.2597 13.8115 36.4209 14.1313 36.7159 14.2263C37.1126 14.3522 37.5353 14.1337 37.6618 13.7424C37.8267 13.2301 37.5453 12.6771 37.0271 12.5105C36.3614 12.2982 35.6411 12.6648 35.4242 13.3289C35.1489 14.1843 35.6213 15.104 36.4816 15.383C37.011 15.5533 37.58 15.5052 38.0783 15.2533C38.573 15.0003 38.9411 14.567 39.1122 14.0362C39.3316 13.3635 39.2709 12.6463 38.9473 12.0167C38.6238 11.3884 38.0746 10.9205 37.399 10.7058C35.6275 10.1367 33.727 11.1094 33.1555 12.8697L32.8134 12.7598C33.1171 11.8143 33.7741 11.0465 34.663 10.5922C35.5481 10.1404 36.5609 10.0614 37.5068 10.3638C38.2742 10.6107 38.9002 11.1378 39.2684 11.8525C39.6366 12.5697 39.7023 13.382 39.4556 14.1473C39.2548 14.7694 38.8234 15.2756 38.2395 15.5718C37.8911 15.752 37.5093 15.8409 37.1262 15.8409Z" fill="white"/>
<path d="M32.984 16.9725C32.7759 16.9725 32.5647 16.9419 32.3536 16.8793C31.4646 16.6073 30.975 15.695 31.2611 14.8497C31.3743 14.5108 31.6207 14.2343 31.9542 14.0699C32.2862 13.9099 32.6672 13.8808 33.0237 13.9884C33.3206 14.0786 33.5593 14.2751 33.7046 14.5355C33.8454 14.8003 33.8683 15.1029 33.775 15.3852C33.697 15.6194 33.5241 15.8143 33.29 15.9249C33.0589 16.0369 32.7958 16.0602 32.5448 15.9817C32.3337 15.9176 32.1654 15.7809 32.0629 15.5947C31.9619 15.4084 31.9466 15.196 32.0124 14.9938C32.0705 14.8236 32.1929 14.6853 32.3612 14.6039C32.5295 14.5209 32.7208 14.5064 32.9013 14.5617C33.2196 14.6592 33.3956 14.9865 33.293 15.2891L32.8707 15.1626C32.8983 15.0796 32.8508 14.9909 32.7652 14.9647C32.6978 14.9429 32.6275 14.9501 32.5647 14.9792C32.502 15.0098 32.4591 15.0607 32.4362 15.1247C32.4041 15.2178 32.4117 15.3153 32.4591 15.3997C32.5066 15.4855 32.5846 15.5496 32.6825 15.5787C32.8187 15.6194 32.961 15.6092 33.0895 15.5496C33.215 15.4855 33.3083 15.3822 33.3527 15.2557C33.4109 15.0796 33.3956 14.8934 33.3083 14.7304C33.2196 14.5704 33.0696 14.4467 32.886 14.3914C32.6428 14.3158 32.3842 14.3347 32.1577 14.4467C31.9297 14.5588 31.7614 14.7479 31.6834 14.9792C31.4722 15.6019 31.8318 16.2756 32.4897 16.4763C33.3405 16.7368 34.2524 16.2901 34.5278 15.4826C34.8797 14.4424 34.2769 13.325 33.1875 12.9904C31.7936 12.5655 30.2926 13.2959 29.8427 14.6213L29.4189 14.4918C29.9437 12.9453 31.6956 12.0898 33.3252 12.5888C34.6487 12.9947 35.3816 14.3493 34.9547 15.6121C34.6716 16.4429 33.8576 16.9725 32.984 16.9725Z" fill="white"/>
<path d="M36.4948 21.4984C36.4087 21.4984 36.3225 21.4903 36.2363 21.4733C36.0603 21.4392 35.9167 21.3674 35.833 21.2705C35.7469 21.1721 35.7344 21.0604 35.7893 20.9561C35.888 20.7763 36.2176 20.6756 36.5173 20.7348C36.6421 20.7592 36.7445 20.8103 36.802 20.8784C36.8632 20.9472 36.8719 21.0249 36.8344 21.0981C36.7633 21.2269 36.531 21.2994 36.3125 21.2572C36.124 21.2217 36.0216 21.1018 36.0828 20.9923L36.3125 21.036C36.2938 21.0722 36.3262 21.11 36.3862 21.1211C36.4761 21.1381 36.5747 21.1077 36.6034 21.0545C36.6459 20.979 36.5722 20.8954 36.4436 20.871C36.3575 20.8562 36.2688 20.8599 36.1889 20.8843C36.109 20.9087 36.0478 20.9509 36.0216 20.9997C35.9841 21.0678 35.9929 21.1403 36.0478 21.2047C36.1052 21.269 36.1976 21.3142 36.3125 21.3371C36.6234 21.3978 36.9593 21.2957 37.0604 21.11C37.1216 20.9923 37.1054 20.8695 37.013 20.7615C36.9168 20.6512 36.757 20.5698 36.5622 20.5336C36.0216 20.4315 35.4697 20.6889 35.3061 20.9864L35.0764 20.9427C35.2774 20.5735 35.9517 20.2672 36.6359 20.3974C37.1703 20.4981 37.46 20.8391 37.2914 21.1536C37.2203 21.2801 37.0742 21.3822 36.8756 21.4429C36.757 21.4792 36.6259 21.4984 36.4948 21.4984Z" fill="white"/>
<path d="M16.8712 20.0357L17.4293 19.9883C17.4293 19.9883 15.1089 16.8873 12.9217 15.841L10.1835 16.0327C10.1835 16.0327 13.7518 18.4869 14.4445 19.0274C15.1415 19.5656 17.35 21.8038 17.5426 22.0291C17.731 22.2508 19.2354 23.7614 19.2354 23.7614L16.8712 20.0357Z" fill="white"/>
<path d="M23.0467 29.3191L22.5023 30.5504L22.28 30.5172L20.3669 27.1559L23.019 28.4133L23.6031 28.0735C23.6031 28.0735 23.8097 28.6501 23.7509 28.8857C23.692 29.1225 23.0467 29.3191 23.0467 29.3191Z" fill="white"/>
<path d="M2.55215 31.0269C2.57028 30.9739 2.59818 30.9306 2.63725 30.8944C2.65538 30.8804 2.67352 30.8665 2.69444 30.8553C2.83813 30.7842 3.01252 30.8413 3.08785 30.9836C3.159 31.1273 3.1018 31.3017 2.9595 31.3742C2.89115 31.4091 2.81302 31.4161 2.73769 31.391C2.66654 31.3659 2.60516 31.317 2.57028 31.2487C2.53401 31.1775 2.52704 31.098 2.55215 31.0269ZM3.19806 31.5444C3.27758 31.4775 3.33478 31.391 3.36686 31.2877C3.4129 31.1454 3.40174 30.992 3.33059 30.8595C3.19108 30.5805 2.8479 30.4703 2.57028 30.6126C2.43357 30.6809 2.33731 30.7981 2.29127 30.9418C2.24523 31.0841 2.255 31.2375 2.32336 31.3742C2.3945 31.5095 2.5089 31.6058 2.65538 31.6518C2.79907 31.702 2.95253 31.6881 3.08366 31.6197C3.12691 31.5988 3.16318 31.5737 3.19806 31.5444Z" fill="white"/>
<path d="M2.72804 33.6541L3.0917 33.7486L2.63976 34.045L2.72804 33.6541ZM3.52125 31.3492C3.49358 31.2984 3.43956 31.266 3.3829 31.2772C3.06535 31.3309 2.75176 31.1615 2.60286 30.8538C2.5159 30.6661 2.49877 30.4488 2.55938 30.2469C2.61999 30.0451 2.75175 29.8828 2.927 29.784C3.10224 29.6866 3.30516 29.6697 3.49358 29.7346C3.682 29.7995 3.83484 29.9406 3.92576 30.1284C4.07333 30.4389 4.01931 30.8101 3.79004 31.0528C3.75052 31.0966 3.73997 31.1615 3.76633 31.2151L5.32903 34.4854L5.08264 34.6223L3.52125 31.3492ZM5.97335 31.8771L6.31989 32.0281L5.83105 32.2483L5.97335 31.8771ZM2.50536 34.4572L2.89669 34.2003C3.43956 35.0274 4.48575 35.3238 5.3488 34.8509C5.48451 34.7747 5.60837 34.6844 5.723 34.5828C6.31725 34.038 6.54915 33.1445 6.28958 32.3429L6.71122 32.1509C6.72176 32.1481 6.73494 32.141 6.74548 32.1297C6.77183 32.1043 6.78896 32.0648 6.78896 32.0253C6.78896 31.9674 6.75866 31.9166 6.70859 31.894L5.94963 31.5666C5.88507 31.5369 5.80733 31.5694 5.78098 31.6414L5.47397 32.4544C5.45289 32.5052 5.46343 32.5673 5.50032 32.6068C5.53722 32.6463 5.59519 32.6576 5.64263 32.635L6.05109 32.4515C6.26323 33.1375 6.06427 33.8968 5.56093 34.3626L4.04039 31.1756C4.29338 30.8468 4.34081 30.3881 4.15766 30.0013C3.90468 29.4777 3.30121 29.2674 2.80841 29.5356C2.56992 29.6654 2.39468 29.8898 2.31299 30.1608C2.22866 30.4346 2.25237 30.724 2.3736 30.9809C2.55543 31.3676 2.93359 31.5906 3.32888 31.5624L4.85337 34.7521C4.2051 34.9159 3.51334 34.6449 3.11937 34.0549L3.49753 33.8136C3.50017 33.8065 3.50675 33.8023 3.51334 33.7994C3.5476 33.767 3.56473 33.719 3.55814 33.6724C3.5476 33.6145 3.51071 33.5708 3.46064 33.5567L2.66347 33.3506C2.59364 33.3323 2.52249 33.3803 2.50536 33.4522L2.31299 34.3047C2.29981 34.3584 2.31957 34.4162 2.36437 34.4487C2.4039 34.4812 2.46188 34.4854 2.50536 34.4572Z" fill="white"/>
<path d="M4.90416 49.4882C4.58869 49.603 4.18701 49.5723 3.97147 49.4179C3.75005 49.2626 3.82647 49.0657 4.14194 48.949C4.45741 48.8372 4.85909 48.8678 5.07463 49.0222C5.29996 49.1795 5.23138 49.3724 4.90416 49.4882ZM3.89113 48.7719C3.36405 48.9618 3.23864 49.2962 3.60114 49.5515C3.96755 49.8127 4.62396 49.8612 5.16084 49.6683C5.68793 49.4783 5.81333 49.1439 5.45084 48.8886C5.08051 48.6274 4.42802 48.5789 3.89113 48.7719Z" fill="white"/>
<path d="M6.04015 49.4893C5.7243 49.601 5.32213 49.5703 5.10633 49.4192C4.88464 49.2621 4.95527 49.0644 5.277 48.9508C5.59286 48.8372 5.99111 48.8678 6.21083 49.022C6.43252 49.181 6.36189 49.3737 6.04015 49.4893ZM5.02197 48.771C4.49424 48.9607 4.37261 49.2947 4.72966 49.5506C5.1024 49.8114 5.75373 49.8618 6.29126 49.6691C6.81899 49.4794 6.94455 49.1435 6.58358 48.8876C6.21672 48.6277 5.55951 48.5793 5.02197 48.771Z" fill="white"/>
<path d="M4.15185 50.6212C3.99267 50.7349 3.79221 50.7043 3.68314 50.55C3.57309 50.3938 3.60846 50.196 3.76863 50.0823C3.92781 49.9677 4.12925 49.9983 4.23734 50.1525C4.35034 50.3127 4.31497 50.5045 4.15185 50.6212ZM3.64285 49.9024C3.37951 50.0922 3.31662 50.4284 3.49743 50.6845C3.68118 50.9425 4.00839 50.993 4.27763 50.8012C4.54097 50.6113 4.60386 50.2742 4.42306 50.0191C4.23931 49.761 3.91209 49.7096 3.64285 49.9024Z" fill="white"/>
<path d="M5.28135 50.6201C5.12551 50.7339 4.92459 50.7032 4.81677 50.5488C4.707 50.3945 4.74229 50.1965 4.90205 50.0808C5.05788 49.969 5.25881 49.9996 5.36956 50.154C5.47934 50.3113 5.44405 50.5033 5.28135 50.6201ZM4.77463 49.9027C4.51098 50.0926 4.44825 50.4271 4.62859 50.6834C4.81187 50.9446 5.14119 50.9921 5.40975 50.8002C5.67242 50.6102 5.73515 50.2757 5.5548 50.0194C5.37152 49.7592 5.04318 49.7107 4.77463 49.9027Z" fill="white"/>
<path d="M6.0368 50.621C5.72511 50.7326 5.32324 50.702 5.10368 50.5509C4.88804 50.3938 4.95665 50.1962 5.27815 50.0826C5.58984 49.969 5.99171 49.9996 6.21127 50.1537C6.43279 50.3128 6.36221 50.5054 6.0368 50.621ZM5.02331 49.9028C4.49598 50.0924 4.37051 50.4264 4.73122 50.6842C5.0978 50.9421 5.75451 50.9935 6.29164 50.8008C6.81897 50.6111 6.94443 50.2752 6.58373 50.0193C6.21715 49.7585 5.56044 49.7111 5.02331 49.9028Z" fill="white"/>
<path d="M6.0368 51.7527C5.71922 51.8664 5.32324 51.8358 5.10368 51.6815C4.88216 51.5253 4.95665 51.3276 5.27423 51.2139C5.58984 51.0992 5.99171 51.1298 6.20735 51.2841C6.43279 51.4442 6.36221 51.636 6.0368 51.7527ZM5.02331 51.0339C4.49598 51.2237 4.37051 51.5599 4.73122 51.816C5.0978 52.0741 5.75451 52.1245 6.29164 51.9327C6.81897 51.7428 6.94443 51.4057 6.58373 51.1506C6.21127 50.8925 5.56044 50.8411 5.02331 51.0339Z" fill="white"/>
<path d="M4.35594 48.4336C4.4414 48.467 4.44736 48.5233 4.36985 48.5594L4.17309 48.6543L4.12738 48.6359C3.60665 48.4363 3.20121 48.2086 3.49138 47.8753C3.76565 47.5579 4.41159 47.4586 5.01181 47.5623C5.44906 47.6344 5.80482 47.8323 5.59613 48.0688C5.44509 48.2446 5.10324 48.3255 4.75145 48.2648C4.5845 48.2376 4.46724 48.1883 4.40165 48.1277C4.35991 48.0846 4.39569 48.0354 4.48711 48.0125C4.57456 47.9905 4.68189 48.0011 4.74151 48.0354C4.77331 48.0512 4.81306 48.0626 4.85878 48.0714C5.01777 48.0987 5.12907 48.0556 5.17479 48.0037C5.25627 47.9087 5.13305 47.8076 4.82896 47.7558C4.54873 47.7092 4.11148 47.7514 3.93857 47.9501C3.77559 48.1391 4.03397 48.2965 4.32016 48.4178L4.35594 48.4336Z" fill="white"/>
<path d="M3.47889 47.8288C3.5733 47.845 3.65055 47.8838 3.69775 47.9412C3.7421 47.9962 3.76069 48.0686 3.77929 48.146C3.80504 48.2422 3.83078 48.3471 3.9066 48.4433C4.00244 48.5582 4.16408 48.6318 4.35004 48.6481L4.40869 48.6543L4.52599 48.3633L4.43015 48.3508C4.33145 48.3409 4.25563 48.3059 4.21415 48.2547C4.16408 48.1935 4.14549 48.1173 4.1226 48.0336C4.10114 47.9412 4.07539 47.8425 4.00244 47.7526C3.91089 47.6402 3.7564 47.564 3.56329 47.5316L3.49749 47.5228L3.39449 47.8201L3.47889 47.8288Z" fill="white"/>
<path d="M23.2645 5.65747C23.5882 5.93447 23.7787 6.28687 23.7602 6.63599C23.7349 7.19327 23.2645 7.59648 23.2426 8.05705C23.2342 8.30619 23.3387 8.55368 23.5629 8.77496L23.1128 9.05196C22.7891 8.73398 22.6172 8.36847 22.6307 8.03246C22.6559 7.50469 23.1263 7.10476 23.1516 6.60648C23.1617 6.37046 23.0268 6.12296 22.7992 5.92136L23.2645 5.65747Z" fill="white"/>
<path d="M35.6754 20.367C35.5263 20.367 35.3699 20.3407 35.2196 20.288C34.5022 20.0411 34.0831 19.1423 34.2896 18.2829C34.4595 17.5712 35.0815 17.1605 35.6754 17.3651C35.9137 17.4484 36.1141 17.6355 36.2327 17.8971C36.3549 18.1558 36.383 18.4583 36.3145 18.7433C36.1948 19.2358 35.7634 19.5252 35.3479 19.3819C35.0008 19.2621 34.7967 18.8251 34.897 18.4057C34.9373 18.2332 35.0314 18.0915 35.1634 18.0023C35.2978 17.9161 35.4481 17.8927 35.5911 17.9453C35.7169 17.9862 35.8196 18.0842 35.8856 18.223C35.9479 18.3574 35.9638 18.5138 35.9259 18.6644L35.585 18.5474C35.5947 18.5065 35.5911 18.4656 35.5727 18.4291C35.5569 18.3911 35.5288 18.3648 35.4945 18.3531C35.3846 18.3165 35.2697 18.3911 35.2379 18.5226C35.2159 18.6161 35.2257 18.717 35.2636 18.8032C35.3039 18.885 35.3699 18.9479 35.4481 18.9742C35.673 19.0487 35.9076 18.8967 35.9736 18.6264C36.0139 18.4466 35.9956 18.2639 35.9235 18.1032C35.8477 17.9424 35.7255 17.8255 35.5764 17.7743C35.3784 17.7056 35.1756 17.7363 34.9972 17.8518C34.8187 17.9716 34.688 18.166 34.6306 18.4028C34.4815 19.0341 34.787 19.6961 35.3198 19.8803C35.651 19.9928 36.0017 19.9431 36.3011 19.7458C36.6054 19.5427 36.8241 19.2139 36.9182 18.8178C37.0404 18.3092 36.9903 17.7699 36.774 17.3067C36.5577 16.8419 36.2045 16.5058 35.7793 16.3596C35.2416 16.1755 34.6684 16.2661 34.1686 16.6139C33.6737 16.9617 33.3107 17.5113 33.1543 18.1704L32.8134 18.0549C32.9955 17.2906 33.4146 16.6475 33.9902 16.2471C34.5719 15.8393 35.2416 15.7341 35.8758 15.9519C36.3927 16.1273 36.8241 16.535 37.0832 17.1006C37.3472 17.6647 37.4095 18.3165 37.2592 18.9333C37.1406 19.4419 36.8583 19.8613 36.4734 20.1156C36.2265 20.2807 35.954 20.367 35.6754 20.367Z" fill="white"/>
<path d="M9.05198 53.1481C9.05198 53.1481 23.5038 62.7384 36.2079 54.0974C36.2079 54.0974 25.7227 60.9584 13.8279 52.6728C13.8279 52.6728 12.5334 50.6793 10.874 50.941C10.874 50.941 9.96362 51.2014 9.60255 52.0832C9.23892 52.9621 9.05198 53.1481 9.05198 53.1481Z" fill="white"/>
<path d="M24.8929 14.7095H21.4984L22.4627 9.05197L22.7945 9.11343L21.9008 14.36H24.5021L23.7656 9.23393L24.0963 9.18091L24.8929 14.7095Z" fill="white"/>
<path d="M25.6538 27.1559L25.3031 27.0181L28.7403 20.8162L23.1872 21.7866L22.6299 21.6969L22.7019 21.3787L23.1792 21.4538L23.5285 21.3877L29.4189 20.3669L25.6538 27.1559Z" fill="white"/>
<path d="M23.431 31.6819C16.3256 19.2822 12.4864 17.3202 12.4464 17.3013L12.6116 16.9724C12.7704 17.0468 16.5695 18.9596 23.7614 31.5017L23.431 31.6819Z" fill="white"/>
<path d="M24.1843 57.7063C15.9181 57.7063 9.14845 53.5588 9.05198 53.4959L9.24619 53.1803C9.38583 53.2688 23.688 62.0219 36.0073 53.8513L36.2079 54.1592C32.2271 56.8032 28.0419 57.7063 24.1843 57.7063Z" fill="white"/>
<path d="M34.0811 51.0955L34.527 51.5847L34.4262 51.7083C34.4136 51.7248 33.105 53.3885 33.9854 54.3401L34.5912 54.9987C37.7085 53.6293 39.7275 51.8586 40.2338 51.3885L38.8118 49.707L38.8219 49.6255C39.1569 46.8892 37.677 34.2777 37.6606 34.1503L37.6418 33.9809L39.5764 33.6L38.7892 31.2127L35.2197 31.9108L37.2387 28.3427L34.5232 25.372L35.9225 23.158L33.2725 18.3338L30.3064 18.9605L27.6072 0.436943L23.3476 0.374522L23.3639 0.936305L24.8023 1.52611L23.8022 9.69809L22.0389 9.53248L22.0553 6.73376L20.127 6.74395L17.8145 8.57707L15.725 9.02675L15.5676 11.251L13.7551 10.9898L12.8168 13.9083L15.458 15.386L11.0635 15.7834L13.0523 17.4076L12.4755 19.8701L9.90606 20.6038L12.1329 21.856L12.2072 24.0318L13.9579 22.6879L13.5032 26.679L13.24 26.4216C11.027 24.2892 8.97654 26.158 8.88963 26.2395L8.84429 26.2815L6.82655 26.4675L7.08475 24.321C6.31645 24.4166 5.72952 24.7223 5.33277 25.2382C4.70805 26.0535 4.70427 27.1949 4.7471 27.7427L5.40708 27.2242L7.08727 30.9745L7.31902 35.0764L4.5884 35.5885L6.63007 38.6446L7.70695 42.1465L5.82398 44.0191L6.98777 44.8739L5.21438 46.2726L5.16274 46.2751L0.432012 46.7159L0.570559 47.5019L6.29378 46.8395L7.03311 49.0382L9.13775 51.3401L9.12516 51.4255C9.11886 51.47 8.97654 52.521 8.50548 52.9605C8.2964 53.1567 7.78378 53.056 6.47515 52.7363C5.64009 52.5337 4.08208 52.1528 3.90826 52.4063C3.88937 52.4331 3.89567 52.5401 4.04681 52.7656C5.06575 54.2942 8.88963 53.6649 9.57984 53.5388C9.97281 52.2344 10.5572 51.4802 11.318 51.307C12.3948 51.0599 13.4843 52.0382 13.9944 52.5898L14.6935 52.1427C14.6128 50.8993 14.1481 40.9401 19.8915 38.0968L20.7164 36.9681C20.588 36.6943 20.3109 35.9478 20.6484 35.1745C20.9935 34.3758 21.8714 33.8051 23.2569 33.479L23.0931 31.5809L24.2985 31.8L24.2859 31.6267L22.4357 30.7261L22.4646 30.586C22.5314 30.2408 22.913 28.5057 23.767 28.6267C23.8022 28.6331 23.8148 28.6267 23.8148 28.6267C23.9156 28.5287 23.7544 27.814 23.3929 27.042L23.335 26.9172L24.0667 26.2357L24.9635 27.4688L28.674 27.7032L28.2193 30.3873L28.6551 30.456L29.329 28.4076L30.8215 28.8191L30.0998 32.0866L30.8341 32.0764L31.5696 29.9541L32.6339 32.1872L30.8857 33.8216L31.0029 34.1478L33.8015 33.6191L31.3568 35.6509L32.2926 36.0586L31.6767 38.2038L32.644 37.963L32.2246 39.7529L34.7524 39.7108L34.5421 40.0115C34.4779 40.1019 32.9916 42.3095 35.5069 44.9478L35.6353 45.0853L34.0975 46.5236C34.5648 47.0025 35.9351 48.4739 35.9389 49.2076C35.9389 49.9414 34.6202 50.7821 34.0811 51.0955ZM34.498 55.4433L33.7171 54.5949C32.7687 53.5707 33.7234 52.0548 34.0458 51.6038L33.4917 50.9974L33.7007 50.8841C34.4262 50.4955 35.5711 49.6968 35.5711 49.2076C35.5711 48.6955 34.4262 47.3643 33.707 46.6509L33.5685 46.5134L35.1139 45.0688C33.0848 42.8318 33.7272 40.8267 34.0786 40.093L31.7573 40.1286L32.1465 38.4688L31.1477 38.7197L31.8505 36.2701L30.6603 35.749L32.4664 34.2484L30.7636 34.5681L30.4613 33.7134L32.1856 32.1032L31.6251 30.9185L31.0961 32.4446L29.6413 32.465L30.3895 29.0828L29.567 28.8573L28.9033 30.8662L27.7936 30.6968L28.242 28.0497L24.7695 27.8267L24.0151 26.7873L23.7796 27.0089C23.9824 27.4624 24.3829 28.4726 24.1121 28.8446C24.0604 28.9172 23.9408 29.0242 23.7153 28.9949C23.345 28.9427 23.0062 29.8293 22.8513 30.5172L24.6348 31.3822L24.7053 32.2497L23.4987 32.0306L23.6511 33.7694L23.4924 33.8051C22.1384 34.0981 21.2971 34.6076 20.9847 35.3185C20.6421 36.1006 21.0842 36.8866 21.0905 36.893L21.1522 36.9974L20.1333 38.3898L20.0917 38.4127C14.274 41.2407 15.0575 52.1134 15.0675 52.2242L15.0776 52.335L13.9289 53.0688L13.8257 52.9516C13.507 52.5923 12.3886 51.4407 11.3986 51.67C10.7562 51.8165 10.2537 52.5172 9.8985 53.7503L9.86953 53.8573L9.75995 53.8802C9.56725 53.9235 4.99522 54.8497 3.74327 52.9745C3.66014 52.8497 3.41202 52.479 3.6085 52.1949C3.90197 51.7643 4.92091 51.9758 6.56205 52.3771C7.21322 52.5337 8.10621 52.7528 8.27121 52.6777C8.542 52.4229 8.69693 51.7771 8.75108 51.4611L6.69682 49.1949L6.04313 47.2407L0.270795 47.9095L0 46.3834L5.07583 45.9134L6.37816 44.8828L5.25594 44.0611L7.29005 42.0433L6.28748 38.7783L3.9725 35.3274L6.93613 34.7732L6.72327 31.0293L5.26602 27.8051L4.47882 28.4204L4.42466 28.1236C4.40829 28.0459 4.09467 26.2459 5.04308 25.0127C5.54311 24.3605 6.29756 23.9987 7.28123 23.9299L7.50291 23.9134L7.24597 26.056L8.68937 25.9223C9.03195 25.6395 11.0635 24.1032 13.2236 25.9134L13.4944 23.5095L11.8659 24.7592L11.7752 22.0777L8.95135 20.493L12.1694 19.5732L12.643 17.5516L10.1277 15.4968L14.2325 15.1248L12.3747 14.0815L13.5032 10.5796L15.2288 10.8267L15.3799 8.72356L17.6533 8.23057L20.001 6.37579L22.4218 6.35923L22.4067 9.19618L23.4798 9.29809L24.4018 1.76051L23.0025 1.18981L22.971 0L27.9259 0.0713376L30.6124 18.5172L33.4627 17.9172L36.3482 23.1707L34.9842 25.3325L37.6896 28.2904L35.9326 31.3923L39.0348 30.7885L40.0562 33.8828L38.0448 34.2777C38.2287 35.8535 39.4819 46.8102 39.1922 49.5885L40.7339 51.4114L40.6142 51.5325C40.5915 51.5554 38.3572 53.7758 34.6164 55.3911L34.498 55.4433Z" fill="white"/>
<path d="M14.1555 52.3875C22.6071 57.6115 29.8281 56.542 34.474 54.6539L33.949 54.1015C32.9847 53.0875 33.9554 51.5867 34.2832 51.1402L33.7197 50.5399L33.9323 50.4276C34.6699 50.0429 35.8339 49.2522 35.8339 48.7679C35.8339 48.2608 34.6699 46.9429 33.9387 46.2366L33.7979 46.1004L35.3691 44.6702C33.3061 42.4555 33.9592 40.4703 34.3165 39.7439L31.9564 39.7792L32.3521 38.1358L31.3366 38.3843L32.0512 35.959L30.8411 35.4431L32.6774 33.9574L30.9461 34.274L30.6387 33.4277L32.3918 31.8335L31.822 30.6606L31.2841 32.1715L29.8051 32.1917L30.5657 28.8432L29.7295 28.62L29.0547 30.6089L27.9265 30.4412L28.3824 27.8204L24.8519 27.5996L24.0849 26.5705L23.8454 26.7899C24.0516 27.2389 24.4588 28.2391 24.1835 28.6073C24.131 28.6792 24.0093 28.7852 23.7801 28.7562C23.4267 28.7108 23.0591 29.5823 22.9016 30.2633L24.7149 31.1197L24.7866 31.9786L23.5598 31.7616L23.7148 33.4832L23.5534 33.5185C22.1768 33.8086 21.3176 34.3156 21.0039 35.0194C20.6556 35.8013 21.105 36.5669 21.1114 36.5757L21.1742 36.6791L20.1382 38.0576L20.096 38.0803C14.1849 40.8802 14.9776 51.6447 14.9878 51.7544L14.9981 51.8641L14.1555 52.3875ZM26.6293 56.5748C22.9016 56.5748 18.5836 55.5708 13.8968 52.6587L13.8507 52.6196C13.8469 52.6158 13.8046 52.5616 13.7252 52.4746L13.5779 52.3131L14.6075 51.6737C14.5256 50.4427 14.053 40.5826 19.8923 37.7675L20.7311 36.6501C20.6005 36.379 20.3188 35.6399 20.662 34.8743C21.0128 34.0835 21.9054 33.5185 23.314 33.1956L23.1475 31.3164L24.373 31.5334L24.3602 31.3618L22.4791 30.4702L22.5085 30.3314C22.5764 29.9896 22.9644 28.2719 23.8326 28.3917C23.8685 28.398 23.8813 28.3917 23.8813 28.3917C23.9837 28.2946 23.8198 27.587 23.4523 26.8227L23.3934 26.6991L24.1374 26.0244L25.0491 27.2452L28.8216 27.4773L28.3594 30.1347L28.8024 30.2028L29.4875 28.1748L31.005 28.5821L30.2712 31.8171L31.0178 31.807L31.7656 29.7059L32.8477 31.9168L31.0703 33.5349L31.1894 33.8578L34.0348 33.3344L31.5492 35.346L32.5007 35.7496L31.8745 37.8735L32.8579 37.6351L32.4315 39.4071L35.0016 39.3655L34.7877 39.6632C34.7224 39.7527 33.2114 41.9384 35.7686 44.5504L35.8992 44.6866L34.3357 46.1105C34.8108 46.5847 36.204 48.0414 36.2079 48.7679C36.2079 49.4943 34.8671 50.3267 34.319 50.637L34.7724 51.1213L34.6699 51.2436C34.6571 51.26 33.3266 52.9072 34.2217 53.8493L35.1091 54.7864L34.8633 54.8898C32.6646 55.8155 29.8704 56.5748 26.6293 56.5748Z" fill="white"/>
<path d="M32.3956 31.6819L27.1559 0.0543191L27.5751 0L32.8134 31.6263L32.3956 31.6819Z" fill="white"/>
<path d="M32.0936 27.1559L31.6819 27.089L33.5332 18.1039L33.9449 18.1708L32.0936 27.1559Z" fill="white"/>
<path d="M31.9789 38.4709L31.6819 38.2807L36.9148 28.2447L32.4661 22.8869L32.7178 22.6299L37.3394 28.1921L31.9789 38.4709Z" fill="white"/>
<path d="M31.8645 31.6819L31.6819 31.3138L37.1567 28.2874L37.3394 28.6554L31.8645 31.6819Z" fill="white"/>
<path d="M36.0247 29.4189L31.6819 26.3845L31.865 26.0244L36.2079 29.0587L36.0247 29.4189Z" fill="white"/>
<path d="M32.0042 39.6024L31.6819 39.3749L39.2814 30.5504L39.6024 30.783L32.0042 39.6024Z" fill="white"/>
<path d="M34.3128 40.7339L33.9449 40.5388L37.8169 34.543L36.7964 34.3144L36.8999 33.9449L38.4709 34.2911L34.3128 40.7339Z" fill="white"/>
<path d="M39.4246 33.9449L37.3394 33.0686L37.5171 32.8134L39.6024 33.6896L39.4246 33.9449Z" fill="white"/>
<path d="M22.2999 30.5504L21.0664 28.5007L20.1868 26.9936L15.8409 19.2354L22.5075 20.6513L22.4223 21.0271L21.5228 20.8273L16.5941 19.7886L20.5248 26.803L21.4004 28.3036L22.6299 30.3532L22.2999 30.5504Z" fill="white"/>
<path d="M26.736 18.1039L26.2973 2.71077L22.6299 1.47198L22.7809 1.1315L26.7101 2.45949L27.1559 18.0939L26.736 18.1039Z" fill="white"/>
<path d="M19.7128 17.6399H25.547L25.0025 15.1703H20.2536L19.7128 17.6399ZM26.0244 18.1039H19.2354L19.9801 14.7094H25.2797L26.0244 18.1039Z" fill="white"/>
<path d="M27.9161 20.3669L26.7885 17.3551H18.5174L17.337 20.1755L16.9724 20.0314L18.2504 16.9724H27.0623L28.2874 20.2398L27.9161 20.3669Z" fill="white"/>
<path d="M23.0474 29.4189L22.6299 21.5078L23.3439 21.4984L23.7614 29.4042L23.0474 29.4189Z" fill="white"/>
<path d="M25.3802 14.7095L24.8929 14.6939L25.5354 2.26303L26.0244 2.27621L25.3802 14.7095Z" fill="white"/>
<path d="M18.6374 17.8046H26.6458L26.4154 17.2728H18.8961L18.6374 17.8046ZM27.1559 18.1039H18.1039L18.6534 16.9724H26.6643L27.1559 18.1039Z" fill="white"/>
<path d="M23.0477 22.6299L16.9724 20.8379L17.0602 20.3669L23.0516 22.1339L28.2101 20.7343L28.2874 21.2103L23.0477 22.6299Z" fill="white"/>
<path d="M23.1495 28.2874L20.3669 26.4415L20.5118 26.0244L23.1344 27.7584L23.5922 27.3956L23.7614 27.7951L23.1495 28.2874Z" fill="white"/>
<path d="M25.0306 27.1559L24.8929 26.8L25.7153 26.1703L25.8292 26.0244L26.0244 26.3205L25.8669 26.5165L25.0306 27.1559Z" fill="white"/>
<path d="M13.9307 19.2354L12.4464 17.187L12.7244 16.9724L14.0985 18.8704L14.6975 18.8445L14.7094 19.2046L13.9307 19.2354Z" fill="white"/>
<path d="M16.9724 23.7614L14.0121 22.9424L13.8286 23.071L13.5779 22.7864L13.9252 22.5404L16.3017 23.1984L15.4418 21.1147L16.037 20.3669L16.3675 20.5779L15.9011 21.1684L16.9724 23.7614Z" fill="white"/>
<path d="M16.6445 20.3669C15.0867 17.1949 12.4721 15.0678 12.4464 15.0463L12.6655 14.7094C12.6924 14.7323 15.3711 16.9136 16.9724 20.1699L16.6445 20.3669Z" fill="white"/>
<path d="M19.0177 16.9724L18.7133 16.7549L14.7094 15.0133L14.8616 14.7094L18.9162 16.4775L19.2354 16.7077L19.0177 16.9724Z" fill="white"/>
<path d="M17.7859 16.9724H16.9724V16.6939L17.282 7.92047L18.1039 7.92754L17.7859 16.9724Z" fill="white"/>
<path d="M15.6312 15.8409L14.7094 15.833L14.9129 11.3149L15.8409 11.3215L15.6312 15.8409Z" fill="white"/>
<path d="M15.861 33.9449L12.4464 26.0244L19.2354 29.6988L19.0191 30.0174L13.2718 26.9096L16.2536 33.81L15.861 33.9449Z" fill="white"/>
<path d="M4.58733 35.0763L4.52598 34.7441L15.782 32.8134L15.8409 33.1468L4.58733 35.0763Z" fill="white"/>
<path d="M14.3679 33.9449L11.315 25.0284L11.6603 24.8929L14.7094 33.8095L14.3679 33.9449Z" fill="white"/>
<path d="M12.0872 33.9449L9.05198 25.0251L9.40861 24.8929L12.4465 33.8142L12.0872 33.9449Z" fill="white"/>
<path d="M4.59145 36.2079L4.52598 35.856L15.7755 33.9449L15.8409 34.2967L4.59145 36.2079Z" fill="white"/>
<path d="M4.59765 37.3394L4.52598 36.9609L15.7693 35.0764L15.8409 35.4562L4.59765 37.3394Z" fill="white"/>
<path d="M5.72244 37.3394L5.65747 37.1322L14.6457 36.2079L14.7094 36.4152L5.72244 37.3394Z" fill="white"/>
<path d="M6.85159 38.4708L6.78897 38.2506L14.6431 37.3393L14.7094 37.5619L6.85159 38.4708Z" fill="white"/>
<path d="M6.84845 39.6023L6.78897 39.1168L13.5185 37.3393L13.5779 37.8249L6.84845 39.6023Z" fill="white"/>
<path d="M6.85241 40.7338L6.78897 40.2184L13.5145 38.4708L13.5779 38.9917L6.85241 40.7338Z" fill="white"/>
<path d="M19.0606 29.4189L13.5779 25.2729L13.7539 24.8929L19.2354 29.039L19.0606 29.4189Z" fill="white"/>
<path d="M19.0657 28.2874L13.5779 25.1669L13.7431 24.8929L19.2354 28.0113L19.0657 28.2874Z" fill="white"/>
<path d="M20.1721 28.2874L13.5779 24.1134L13.7728 23.7614L20.3669 27.9355L20.1721 28.2874Z" fill="white"/>
<path d="M20.182 27.1559L13.5779 24.0136L13.7641 23.7614L20.3669 26.9038L20.182 27.1559Z" fill="white"/>
<path d="M20.1891 27.1559L13.5779 22.9594L13.7582 22.6299L20.3669 26.8278L20.1891 27.1559Z" fill="white"/>
<path d="M19.0513 26.0244L15.8409 24.0788L16.0251 23.7614L19.2354 25.7071L19.0513 26.0244Z" fill="white"/>
<path d="M19.0286 24.8929L15.8409 22.9948L16.0478 22.6299L19.2354 24.5281L19.0286 24.8929Z" fill="white"/>
<path d="M17.9182 22.6299L15.8409 21.7394L16.0267 21.4984L18.1039 22.388L17.9182 22.6299Z" fill="white"/>
<path d="M11.6082 44.962C11.6082 44.6612 11.856 44.4162 12.1603 44.4162C12.2459 44.4162 12.3255 44.4361 12.3981 44.4719C12.4132 44.3753 12.4313 44.2757 12.4465 44.1791C12.3568 44.1482 12.2611 44.1283 12.1603 44.1283C11.6938 44.1283 11.315 44.5028 11.315 44.962C11.315 45.0666 11.3381 45.1682 11.3734 45.2598L11.6807 45.2289C11.6374 45.1502 11.6082 45.0586 11.6082 44.962Z" fill="white"/>
<path d="M10.517 44.8207C10.517 44.0052 11.1678 43.3412 11.9618 43.3412C12.1072 43.3412 12.2457 43.3626 12.3784 43.4052C12.4026 43.2927 12.4234 43.1815 12.4465 43.0655C12.2895 43.024 12.1303 42.9968 11.9618 42.9968C10.9809 42.9968 10.1835 43.8147 10.1835 44.8207C10.1835 44.9722 10.2042 45.1178 10.2365 45.2598L10.5735 45.2231C10.5377 45.0965 10.517 44.9592 10.517 44.8207Z" fill="white"/>
<path d="M9.05198 44.6793C9.05198 44.8767 9.07393 45.0715 9.11175 45.2598L9.4679 45.2237C9.43009 45.0457 9.40814 44.8638 9.40814 44.6793C9.40814 43.3349 10.4412 42.2421 11.7122 42.2421C11.9403 42.2421 12.1586 42.2782 12.3647 42.344C12.3928 42.2214 12.4209 42.0989 12.4465 41.9776C12.2147 41.9041 11.9659 41.8654 11.7122 41.8654C10.2449 41.8654 9.05198 43.1272 9.05198 44.6793Z" fill="white"/>
<path d="M8.28309 44.7087C8.28309 43.3021 9.70978 42.1576 11.4564 42.1576C11.7689 42.1576 12.0675 42.1958 12.3498 42.2633C12.3825 42.1676 12.4138 42.0749 12.4464 41.9792C12.1315 41.9067 11.8002 41.8654 11.4564 41.8654C9.5065 41.8654 7.92046 43.1399 7.92046 44.7087C7.92046 44.8961 7.94305 45.0825 7.98822 45.2598L8.35336 45.2316C8.30944 45.0614 8.28309 44.886 8.28309 44.7087Z" fill="white"/>
<path d="M8.28872 44.5956C8.28872 42.6438 10.1035 41.056 12.3345 41.056C12.7317 41.056 13.1126 41.1068 13.4745 41.2006C13.5061 41.0991 13.5414 40.9942 13.5779 40.8927C13.1832 40.7912 12.767 40.7339 12.3345 40.7339C9.90046 40.7339 7.92046 42.4661 7.92046 44.5956C7.92046 44.8218 7.94947 45.0447 7.99235 45.2598L8.35682 45.2278C8.3152 45.0215 8.28872 44.813 8.28872 44.5956Z" fill="white"/>
<path d="M6.85916 40.7338L6.78897 40.4507L13.5078 39.6023L13.5779 39.8855L6.85916 40.7338Z" fill="white"/>
<path d="M6.82536 42.9969L6.78897 42.4604L7.88408 41.8654L7.92047 42.4018L6.82536 42.9969Z" fill="white"/>
<path d="M5.71218 44.1283L5.65747 43.5586L7.86327 42.9968L7.92046 43.5686L5.71218 44.1283Z" fill="white"/>
<path d="M11.3179 50.9173C11.1311 36.2237 20.0255 27.2451 20.1134 27.1559L20.3669 27.4122C20.2791 27.5013 11.4923 36.3797 11.679 50.9111L11.3179 50.9173Z" fill="white"/>
<path d="M0.0314669 46.3913L0 46.0796L12.4163 45.2598L12.4465 45.5716L0.0314669 46.3913Z" fill="white"/>
<path d="M37.127 39.1296L36.7953 38.9524C36.8723 38.7753 36.9456 38.6162 37.0189 38.4708L37.3394 38.6729C37.2723 38.8071 37.199 38.9594 37.127 39.1296ZM36.7929 40.0817L36.4401 39.9613C36.4873 39.7842 36.5444 39.6112 36.6016 39.4479L36.9456 39.6001C36.891 39.7524 36.8376 39.9157 36.7929 40.0817ZM36.6016 41.074L36.2364 41.0283C36.2551 40.8512 36.2811 40.6699 36.3159 40.49L36.6749 40.5744C36.6426 40.7419 36.6177 40.9121 36.6016 41.074ZM36.2426 42.1341C36.2203 41.9528 36.2103 41.7687 36.2079 41.5805L36.5767 41.5777C36.5792 41.748 36.5892 41.9182 36.6078 42.0773L36.2426 42.1341ZM36.5196 43.1997C36.4525 43.0295 36.3917 42.8565 36.347 42.6752L36.7009 42.5617C36.7419 42.7223 36.7929 42.8773 36.8562 43.0267L36.5196 43.1997ZM37.0624 44.1283C36.9518 43.9872 36.85 43.8418 36.7606 43.6896L37.0723 43.4627C37.1518 43.601 37.2412 43.7353 37.3394 43.8626L37.0624 44.1283Z" fill="white"/>
<path d="M36.5646 46.9873C36.4421 46.8596 36.3195 46.7381 36.2079 46.6317L36.5568 46.3913C36.6732 46.5003 36.8004 46.6255 36.926 46.7569L36.5646 46.9873ZM37.2362 47.7285C37.1292 47.5995 37.0222 47.4743 36.9105 47.3529L37.2843 47.135C37.3991 47.2602 37.5107 47.3917 37.6178 47.5231L37.2362 47.7285ZM37.7806 48.5135C37.7124 48.3883 37.6255 48.2531 37.5309 48.1153L37.9311 47.93C38.035 48.0803 38.1265 48.2243 38.201 48.3632L37.7806 48.5135ZM38.46 49.3623L38.0024 49.311C38.0102 49.2697 38.0102 49.2284 38.0102 49.1895C38.0102 49.132 38.0071 49.0744 37.9916 49.0168C37.9823 48.9842 37.9745 48.9529 37.9637 48.9204L38.4119 48.8277C38.4243 48.8653 38.4321 48.9041 38.4429 48.9429C38.4631 49.023 38.4708 49.1057 38.4708 49.1895C38.4708 49.2471 38.4677 49.3047 38.46 49.3623ZM37.8876 50.2763L37.5418 50.0321C37.6658 49.917 37.7682 49.8018 37.8442 49.6866L38.249 49.8631C38.1575 50.0008 38.035 50.1411 37.8876 50.2763ZM36.9741 50.9173L36.7119 50.6093C36.8717 50.5192 37.0222 50.4303 37.1524 50.3401L37.4503 50.6218C37.3076 50.722 37.1447 50.8209 36.9741 50.9173Z" fill="white"/>
<path d="M36.2455 53.1803C36.2181 53.0536 36.2079 52.9227 36.2079 52.796C36.2079 52.5534 36.2523 52.3 36.3412 52.0488L37.3394 52.1862C37.2607 52.3945 37.2231 52.5985 37.2231 52.796C37.2231 52.8948 37.2334 52.9978 37.2607 53.0987L36.2455 53.1803Z" fill="white"/>
<path d="M18.6252 9.9204H19.8457V9.31504H18.6252V9.9204ZM20.3669 10.1835H18.1039V9.05197H20.3669V10.1835Z" fill="white"/>
<path d="M20.6289 9.92116H21.2365V9.31428H20.6289V9.92116ZM21.4984 10.1835H20.3669V9.05197H21.4984V10.1835Z" fill="white"/>
<path d="M19.625 12.0521H21.1041V10.573H19.625V12.0521ZM21.4984 12.4464H19.2354V10.1834H21.4984V12.4464Z" fill="white"/>
<path d="M19.4977 13.316H20.1046V12.7084H19.4977V13.316ZM20.3669 13.578H19.2354V12.4465H20.3669V13.578Z" fill="white"/>
<path d="M17.23 9.92586H17.8404V9.31552H17.23V9.92586ZM18.1039 10.1835H16.9724V9.05197H18.1039V10.1835Z" fill="white"/>
<path d="M33.1517 23.7614L32.8134 23.6896L33.6041 19.2354L33.9449 19.3047L33.1517 23.7614Z" fill="white"/>
<path d="M34.3109 23.7614L33.9449 23.7092L34.7065 20.3669L35.0764 20.4191L34.3109 23.7614Z" fill="white"/>
<path d="M34.3329 24.8929L33.9449 24.8187L34.6884 20.3669L35.0764 20.4411L34.3329 24.8929Z" fill="white"/>
<path d="M35.6636 23.7614L35.0764 23.7176L35.6268 22.6299L36.2079 22.6738L35.6636 23.7614Z" fill="white"/>
<path d="M33.6286 38.4708L31.6819 37.6961L31.9981 37.3393L33.9449 38.114L33.6286 38.4708Z" fill="white"/>
<path d="M33.7808 37.3394L32.8134 36.5627L32.9775 36.2079L33.9449 36.9804L33.7808 37.3394Z" fill="white"/>
<path d="M34.9455 36.2079L33.9449 35.3835L34.0758 35.0764L35.0764 35.8995L34.9455 36.2079Z" fill="white"/>
<path d="M34.9467 36.2079L33.9449 34.5313L34.0745 33.9449L35.0764 35.6214L34.9467 36.2079Z" fill="white"/>
<path d="M35.9641 35.0764L33.9449 34.233L34.1887 33.9449L36.2079 34.786L35.9641 35.0764Z" fill="white"/>
<path d="M35.9732 35.0764L33.9449 34.225L34.1795 33.9449L36.2079 34.7963L35.9732 35.0764Z" fill="white"/>
<path d="M36.1007 33.9449L35.0764 33.0871L35.1814 32.8134L36.2079 33.6711L36.1007 33.9449Z" fill="white"/>
<path d="M37.1301 33.9449L35.0764 33.0683L35.2857 32.8134L37.3394 33.6899L37.1301 33.9449Z" fill="white"/>
<path d="M37.1289 32.8134L35.0764 31.9192L35.2855 31.6819L37.3394 32.5741L37.1289 32.8134Z" fill="white"/>
<path d="M37.2279 32.8134L36.2079 31.9511L36.3185 31.6819L37.3394 32.5474L37.2279 32.8134Z" fill="white"/>
<path d="M38.2132 31.6819L37.3394 31.05L37.5971 30.5504L38.4709 31.1824L38.2132 31.6819Z" fill="white"/>
<path d="M33.8032 37.3394L32.8134 36.5566L32.9541 36.2079L33.9449 36.9907L33.8032 37.3394Z" fill="white"/>
<path d="M34.7837 37.3394L32.8134 36.5257L33.1003 36.2079L35.0764 37.0216L34.7837 37.3394Z" fill="white"/>
<path d="M33.9449 30.5504L31.6819 30.5389V29.4189L33.9449 29.4266V30.5504Z" fill="white"/>
<path d="M36.2051 29.4189L31.6819 29.3998V28.2874L36.2079 28.3064L36.2051 29.4189Z" fill="white"/>
<path d="M35.0764 28.2874L31.6819 28.2759V27.1559L35.0764 27.1751V28.2874Z" fill="white"/>
<path d="M28.4036 28.2874L27.1559 27.3668L31.4457 23.7614L31.6819 24.0512L27.757 27.3475L28.6208 27.9835L28.4036 28.2874Z" fill="white"/>
<path d="M33.9449 27.1559L32.0474 27.1536L27.1559 24.0301L27.3886 23.7614L32.1784 26.8169L33.9449 26.8227V27.1559Z" fill="white"/>
<path d="M31.4603 23.7614L28.2874 21.7508L28.5052 21.4984L31.6819 23.5068L31.4603 23.7614Z" fill="white"/>
<path d="M29.2088 29.4189L28.2874 28.6227L28.4939 28.2874L29.4189 29.0836L29.2088 29.4189Z" fill="white"/>
<path d="M31.4995 30.5504L30.5504 29.6863L30.7327 29.4189L31.6819 30.2842L31.4995 30.5504Z" fill="white"/>
<path d="M28.4735 29.4189L28.2874 29.1487L31.4969 27.1559L31.6819 27.4295L28.4735 29.4189Z" fill="white"/>
<path d="M27.0706 23.7614L26.8393 23.4797L30.012 20.6701L26.4625 17.3314L29.213 14.7793L26.356 11.4113L28.4838 9.34237L26.2251 5.58686L27.7007 4.22539L26.0244 2.48277L27.5123 1.1315L27.7472 1.4094L26.5444 2.50316L28.2207 4.24197L26.6888 5.6557L28.9402 9.40483L26.854 11.4381L29.7147 14.8086L26.9959 17.3314L30.5504 20.6764L27.0706 23.7614Z" fill="white"/>
<path d="M27.8596 19.2354L27.6523 18.95L30.0409 16.9407L27.0618 13.7133L29.3416 11.5463L26.9379 8.08226L28.6712 6.26826L26.8164 3.45399L28.0136 2.30975L26.0244 0.261647L26.2595 0L28.5091 2.31977L27.2633 3.50907L29.1135 6.31333L27.3849 8.12107L29.8013 11.5976L27.5539 13.7296L30.5504 16.9757L27.8596 19.2354Z" fill="white"/>
<path d="M25.4843 2.26299L22.6299 0.327501L22.9001 0L25.4843 1.74855L28.0094 0L28.2874 0.323284L25.4843 2.26299Z" fill="white"/>
<path d="M24.0674 1.1315L23.7614 0.927558L25.7184 0L26.0244 0.203938L24.0674 1.1315Z" fill="white"/>
<path d="M24.0794 12.4465L23.7614 12.4119L24.5728 2.26303L24.8929 2.29388L24.0794 12.4465Z" fill="white"/>
<path d="M16.4375 38.0504H19.5492L19.9068 37.0709L15.4694 36.693L16.4375 38.0504ZM19.7258 38.4709H16.3198L14.7094 36.2079L20.3669 36.6961L19.7258 38.4709Z" fill="white"/>
<path d="M19.2354 37.3394H18.7801V34.3812H18.5593V37.2838H18.1039V33.9449H19.2354V37.3394Z" fill="white"/>
<path d="M20.3405 38.4708L15.8409 37.8946L15.8661 37.3393L20.3669 37.9156L20.3405 38.4708Z" fill="white"/>
</svg>
